# This file uses centimeters as units for non-parametric coordinates.

mtllib BLOCK_WHITE_PLATFORM_SYSTEM.mtl
g default
v -30.206339 -3.017175 0.981720
v -17.611916 -3.017175 0.981720
v -35.691792 -3.008075 0.981720
v -17.611916 4.822575 0.981720
v -35.691792 -3.008075 -6.574933
v -17.611916 4.822575 -6.574933
v -30.206339 -3.017175 -6.574933
v -17.611916 -3.017175 -6.574933
vt 0.375000 0.000000
vt 0.625000 0.000000
vt 0.375000 0.250000
vt 0.625000 0.250000
vt 0.375000 0.500000
vt 0.625000 0.500000
vt 0.375000 0.750000
vt 0.625000 0.750000
vt 0.375000 1.000000
vt 0.625000 1.000000
vt 0.875000 0.000000
vt 0.875000 0.250000
vt 0.125000 0.000000
vt 0.125000 0.250000
vn 0.000000 0.000000 1.000000
vn 0.000000 0.000000 1.000000
vn 0.000000 0.000000 1.000000
vn 0.000000 0.000000 1.000000
vn -0.397438 0.917629 0.000000
vn -0.397438 0.917629 0.000000
vn -0.397438 0.917629 0.000000
vn -0.397438 0.917629 0.000000
vn 0.000000 0.000000 -1.000000
vn 0.000000 0.000000 -1.000000
vn 0.000000 0.000000 -1.000000
vn 0.000000 0.000000 -1.000000
vn 0.000000 -1.000000 0.000000
vn 0.000000 -1.000000 0.000000
vn 0.000000 -1.000000 0.000000
vn 0.000000 -1.000000 0.000000
vn 1.000000 0.000000 0.000000
vn 1.000000 0.000000 0.000000
vn 1.000000 0.000000 0.000000
vn 1.000000 0.000000 0.000000
vn -0.001659 -0.999999 0.000000
vn -0.001659 -0.999999 0.000000
vn -0.001659 -0.999999 0.000000
vn -0.001659 -0.999999 0.000000
s off
g ramp_1 White_blocks
usemtl initialShadingGroup
f 1/1/1 2/2/2 4/4/3 3/3/4
f 3/3/5 4/4/6 6/6/7 5/5/8
f 5/5/9 6/6/10 8/8/11 7/7/12
f 7/7/13 8/8/14 2/10/15 1/9/16
f 2/2/17 8/11/18 6/12/19 4/4/20
f 7/13/21 1/1/22 3/3/23 5/14/24
g default
v -17.605670 0.948312 4.884898
v 12.944660 0.948312 4.884898
v -17.605670 4.864081 4.884898
v 12.944660 4.864081 4.884898
v -17.605670 4.864081 -10.633478
v 12.944660 4.864081 -10.633478
v -17.605670 0.948312 -10.633478
v 12.944660 0.948312 -10.633478
v -17.605670 -2.887812 -10.633478
v 12.944660 -2.887812 -10.633478
v 12.944660 -2.887812 4.884898
v -17.605670 -2.887812 4.884898
vt 0.375000 0.000000
vt 0.625000 0.000000
vt 0.375000 0.250000
vt 0.625000 0.250000
vt 0.375000 0.500000
vt 0.625000 0.500000
vt 0.375000 0.750000
vt 0.625000 0.750000
vt 0.375000 1.000000
vt 0.625000 1.000000
vt 0.875000 0.000000
vt 0.875000 0.250000
vt 0.125000 0.000000
vt 0.125000 0.250000
vt 0.375000 0.750000
vt 0.625000 0.750000
vt 0.625000 1.000000
vt 0.375000 1.000000
vn 0.000000 0.000000 1.000000
vn 0.000000 0.000000 1.000000
vn 0.000000 0.000000 1.000000
vn 0.000000 0.000000 1.000000
vn 0.000000 1.000000 0.000000
vn 0.000000 1.000000 0.000000
vn 0.000000 1.000000 0.000000
vn 0.000000 1.000000 0.000000
vn 0.000000 0.000000 -1.000000
vn 0.000000 0.000000 -1.000000
vn 0.000000 0.000000 -1.000000
vn 0.000000 0.000000 -1.000000
vn 0.000000 -1.000000 0.000000
vn 0.000000 -1.000000 0.000000
vn 0.000000 -1.000000 0.000000
vn 0.000000 -1.000000 0.000000
vn 1.000000 0.000000 0.000000
vn 1.000000 0.000000 0.000000
vn 1.000000 0.000000 0.000000
vn 1.000000 0.000000 0.000000
vn -1.000000 0.000000 0.000000
vn -1.000000 0.000000 0.000000
vn -1.000000 0.000000 0.000000
vn -1.000000 0.000000 0.000000
vn 0.000000 0.000000 -1.000000
vn 0.000000 0.000000 -1.000000
vn 1.000000 0.000000 0.000000
vn 1.000000 0.000000 0.000000
vn 0.000000 0.000000 1.000000
vn 0.000000 0.000000 1.000000
vn -1.000000 0.000000 0.000000
vn -1.000000 0.000000 0.000000
s 1
g White_blocks platform_2
usemtl initialShadingGroup
f 9/15/25 10/16/26 12/18/27 11/17/28
s off
f 11/17/29 12/18/30 14/20/31 13/19/32
s 2
f 13/19/33 14/20/34 16/22/35 15/21/36
s off
f 17/29/37 18/30/38 19/31/39 20/32/40
s 3
f 10/16/41 16/25/42 14/26/43 12/18/44
s 4
f 15/27/45 9/15/46 11/17/47 13/28/48
s 2
f 15/21/36 16/22/35 18/30/49 17/29/50
s 3
f 16/22/42 10/24/41 19/31/51 18/30/52
s 1
f 10/24/26 9/23/25 20/32/53 19/31/54
s 4
f 9/23/46 15/21/45 17/29/55 20/32/56
g default
v -0.069876 0.960969 19.785437
v 7.141515 0.960969 19.785437
v -0.069876 4.845071 19.785437
v 7.141515 4.845071 19.785437
v -0.069876 4.845071 4.566993
v 7.141515 4.845071 4.566993
v -0.069876 0.960969 4.566993
v 7.141515 0.960969 4.566993
vt 0.375000 0.000000
vt 0.625000 0.000000
vt 0.375000 0.250000
vt 0.625000 0.250000
vt 0.375000 0.500000
vt 0.625000 0.500000
vt 0.375000 0.750000
vt 0.625000 0.750000
vt 0.375000 1.000000
vt 0.625000 1.000000
vt 0.875000 0.000000
vt 0.875000 0.250000
vt 0.125000 0.000000
vt 0.125000 0.250000
vn 0.000000 0.000000 1.000000
vn 0.000000 0.000000 1.000000
vn 0.000000 0.000000 1.000000
vn 0.000000 0.000000 1.000000
vn 0.000000 1.000000 0.000000
vn 0.000000 1.000000 0.000000
vn 0.000000 1.000000 0.000000
vn 0.000000 1.000000 0.000000
vn 0.000000 0.000000 -1.000000
vn 0.000000 0.000000 -1.000000
vn 0.000000 0.000000 -1.000000
vn 0.000000 0.000000 -1.000000
vn 0.000000 -1.000000 0.000000
vn 0.000000 -1.000000 0.000000
vn 0.000000 -1.000000 0.000000
vn 0.000000 -1.000000 0.000000
vn 1.000000 0.000000 0.000000
vn 1.000000 0.000000 0.000000
vn 1.000000 0.000000 0.000000
vn 1.000000 0.000000 0.000000
vn -1.000000 0.000000 0.000000
vn -1.000000 0.000000 0.000000
vn -1.000000 0.000000 0.000000
vn -1.000000 0.000000 0.000000
s off
g White_blocks hallway_1
usemtl initialShadingGroup
f 21/33/57 22/34/58 24/36/59 23/35/60
f 23/35/61 24/36/62 26/38/63 25/37/64
f 25/37/65 26/38/66 28/40/67 27/39/68
f 27/39/69 28/40/70 22/42/71 21/41/72
f 22/34/73 28/43/74 26/44/75 24/36/76
f 27/45/77 21/33/78 23/35/79 25/46/80
g default
v -19.387370 0.932803 35.277385
v 7.121056 0.932803 35.277385
v -19.387370 4.848572 35.277385
v 7.121056 4.848572 35.277385
v -19.387370 4.848572 19.368174
v 7.121056 4.848572 19.368174
v -19.387370 0.932803 19.368174
v 7.121056 0.932803 19.368174
v -19.387370 -2.946642 19.368174
v 7.121056 -2.946642 19.368174
v 7.121056 -2.946642 35.277385
v -19.387370 -2.946642 35.277385
vt 0.375000 0.000000
vt 0.625000 0.000000
vt 0.375000 0.250000
vt 0.625000 0.250000
vt 0.375000 0.500000
vt 0.625000 0.500000
vt 0.375000 0.750000
vt 0.625000 0.750000
vt 0.375000 1.000000
vt 0.625000 1.000000
vt 0.875000 0.000000
vt 0.875000 0.250000
vt 0.125000 0.000000
vt 0.125000 0.250000
vt 0.375000 0.750000
vt 0.625000 0.750000
vt 0.625000 1.000000
vt 0.375000 1.000000
vn 0.000000 0.000000 1.000000
vn 0.000000 0.000000 1.000000
vn 0.000000 0.000000 1.000000
vn 0.000000 0.000000 1.000000
vn 0.000000 1.000000 0.000000
vn 0.000000 1.000000 0.000000
vn 0.000000 1.000000 0.000000
vn 0.000000 1.000000 0.000000
vn 0.000000 0.000000 -1.000000
vn 0.000000 0.000000 -1.000000
vn 0.000000 0.000000 -1.000000
vn 0.000000 0.000000 -1.000000
vn 0.000000 -1.000000 0.000000
vn 0.000000 -1.000000 0.000000
vn 0.000000 -1.000000 0.000000
vn 0.000000 -1.000000 0.000000
vn 1.000000 0.000000 0.000000
vn 1.000000 0.000000 0.000000
vn 1.000000 0.000000 0.000000
vn 1.000000 0.000000 0.000000
vn -1.000000 0.000000 0.000000
vn -1.000000 0.000000 0.000000
vn -1.000000 0.000000 0.000000
vn -1.000000 0.000000 0.000000
vn 0.000000 0.000000 -1.000000
vn 0.000000 0.000000 -1.000000
vn 1.000000 0.000000 0.000000
vn 1.000000 0.000000 0.000000
vn 0.000000 0.000000 1.000000
vn 0.000000 0.000000 1.000000
vn -1.000000 0.000000 0.000000
vn -1.000000 0.000000 0.000000
s 1
g White_blocks platform_1
usemtl initialShadingGroup
f 29/47/81 30/48/82 32/50/83 31/49/84
s off
f 31/49/85 32/50/86 34/52/87 33/51/88
s 2
f 33/51/89 34/52/90 36/54/91 35/53/92
s off
f 37/61/93 38/62/94 39/63/95 40/64/96
s 3
f 30/48/97 36/57/98 34/58/99 32/50/100
s 4
f 35/59/101 29/47/102 31/49/103 33/60/104
s 2
f 35/53/92 36/54/91 38/62/105 37/61/106
s 3
f 36/54/98 30/56/97 39/63/107 38/62/108
s 1
f 30/56/82 29/55/81 40/64/109 39/63/110
s 4
f 29/55/102 35/53/101 37/61/111 40/64/112
